<svg width="65" height="65" viewBox="0 0 65 65" fill="none" xmlns="http://www.w3.org/2000/svg">
<g clip-path="url(#clip0_102_199)">
<path d="M39.6173 11.0594C39.3673 10.5454 38.7481 10.3314 38.2339 10.5811C37.7198 10.8311 37.5057 11.4503 37.7555 11.9645C38.8403 14.1961 39.2535 16.4812 38.9835 18.7567C38.5835 22.1286 36.3708 23.8727 34.5262 24.7508C34.5807 24.3494 34.6081 23.9246 34.6081 23.4776C34.6081 21.5545 33.5988 20.3602 32.6229 19.2053C31.6154 18.0131 30.6639 16.8871 30.5599 14.7807C30.5415 14.4077 30.3235 14.0734 29.9894 13.9061C29.6553 13.739 29.257 13.7648 28.9475 13.9737C26.4185 15.6793 24.9791 17.7258 24.6693 20.0561C24.4098 22.0084 25.0098 23.8034 25.7202 25.1594C23.1676 24.2468 20.8857 22.313 20.8112 19.0392C20.7382 15.8276 22.1681 14.4896 23.9782 12.7957C26.0495 10.8573 28.5816 8.48801 29.0224 2.82413C30.7519 3.94385 33.6903 6.09964 35.9438 9.05537C36.2903 9.50999 36.9398 9.59733 37.3944 9.25087C37.8491 8.90417 37.9365 8.2548 37.59 7.80018C33.9286 2.99818 28.7558 0.235045 28.5373 0.119772C28.2165 -0.0497106 27.8303 -0.0386656 27.5198 0.148717C27.2091 0.335973 27.0192 0.672272 27.0192 1.0351C27.0192 7.11476 24.7541 9.23437 22.5635 11.2842C20.6382 13.0857 18.6474 14.9488 18.7415 19.0862C18.7968 21.5222 19.8056 23.6435 21.659 25.2211C23.2648 26.5878 25.4893 27.4985 27.9225 27.7849C27.9631 27.7897 28.0036 27.7919 28.0438 27.7919C28.4234 27.7919 28.7773 27.5828 28.9582 27.2415C29.1581 26.8641 29.1058 26.4026 28.8264 26.0797C28.2428 25.4053 26.3665 22.9974 26.7211 20.3284C26.8937 19.0303 27.5857 17.822 28.7839 16.7222C29.264 18.4378 30.2281 19.5786 31.0416 20.5412C31.9102 21.5693 32.5379 22.3119 32.5379 23.4774C32.5379 24.4788 32.363 25.3261 32.0322 25.9279C31.8329 26.2904 31.8686 26.7365 32.1227 27.0628C32.377 27.389 32.801 27.5324 33.2009 27.4279C37.62 26.2725 40.55 23.1222 41.039 19.0005C41.3569 16.3252 40.8784 13.6532 39.6173 11.0594Z" fill="#5374CA"/>
<path d="M14.2602 54.6094C12.3549 54.6094 10.8047 56.1595 10.8047 58.0649C10.8047 59.9704 12.3549 61.5206 14.2602 61.5206C16.1657 61.5206 17.7159 59.9704 17.7159 58.0649C17.7159 56.1595 16.1657 54.6094 14.2602 54.6094ZM14.2602 59.4505C13.4963 59.4505 12.8748 58.8289 12.8748 58.0649C12.8748 57.3009 13.4963 56.6795 14.2602 56.6795C15.0242 56.6795 15.6458 57.3009 15.6458 58.0649C15.6458 58.8289 15.0242 59.4505 14.2602 59.4505Z" fill="#5374CA"/>
<path d="M50.3844 54.6094C48.4789 54.6094 46.9287 56.1595 46.9287 58.0649C46.9287 59.9704 48.4789 61.5206 50.3844 61.5206C52.2897 61.5206 53.8398 59.9704 53.8398 58.0649C53.8398 56.1595 52.2897 54.6094 50.3844 54.6094ZM50.3844 59.4505C49.6204 59.4505 48.9988 58.8289 48.9988 58.0649C48.9988 57.3009 49.6204 56.6795 50.3844 56.6795C51.1483 56.6795 51.7697 57.3009 51.7697 58.0649C51.7697 58.8289 51.1483 59.4505 50.3844 59.4505Z" fill="#5374CA"/>
<path d="M59.1097 46.9333C58.5467 46.8328 58.0093 47.2075 57.9088 47.7703L57.3717 50.7779C57.2713 51.3407 57.646 51.8784 58.2088 51.9789C58.2703 51.99 58.3314 51.9952 58.3919 51.9952C58.8838 51.9952 59.3202 51.643 59.4097 51.1419L59.9467 48.1343C60.0472 47.5714 59.6725 47.0337 59.1097 46.9333Z" fill="#5374CA"/>
<path d="M62.4881 54.101H61.9494L62.9175 48.6754C63.1886 47.1592 62.8024 45.5914 61.858 44.3745C60.9133 43.1572 59.4902 42.394 57.9535 42.2802L48.5016 41.5803L47.2156 37.7259C45.5983 32.8724 41.0742 29.6113 35.9578 29.6113H19.5627C17.0921 29.6113 14.6774 30.4725 12.7637 32.0363C12.321 32.3979 12.2554 33.0501 12.6172 33.4927C12.9789 33.9352 13.6309 34.0011 14.0736 33.6392C15.3528 32.594 16.9095 31.9389 18.5392 31.7439V41.5266H10.1845C10.2858 41.2948 10.3725 41.0569 10.4393 40.8135L11.1999 38.0543C11.4002 37.3261 11.694 36.6278 12.0729 35.979C12.3612 35.4855 12.1948 34.8516 11.7013 34.5633C11.2079 34.2748 10.574 34.4414 10.2855 34.9349C9.81595 35.7388 9.45197 36.6037 9.20429 37.5048L8.44359 40.2642C8.31308 40.7393 8.07149 41.1855 7.74763 41.5524C7.66701 41.6431 7.58995 41.7214 7.50553 41.7974C7.22115 42.0581 6.90047 42.2631 6.55071 42.4072C4.55273 43.2342 3.26174 45.1658 3.26174 47.3284V54.1008H2.51259C1.94092 54.1008 1.47754 54.5642 1.47754 55.1359C1.47754 55.7076 1.94092 56.1709 2.51259 56.1709H3.26174V58.4475C3.26174 59.0191 3.72512 59.4825 4.29679 59.4825H7.47087C8.12938 62.6444 10.9432 65.0001 14.2606 65.0001C17.5771 65.0001 20.3905 62.6444 21.049 59.4826H36.3648C36.9364 59.4826 37.3998 59.0193 37.3998 58.4476C37.3998 57.8759 36.9364 57.4125 36.3648 57.4125H21.1638C20.8342 53.8931 17.8647 51.1291 14.2606 51.1291C11.9092 51.1291 9.82852 52.3061 8.57359 54.101H5.33171V47.3285C5.33171 46.0064 6.12085 44.8255 7.34062 44.3207C7.7861 44.1372 8.20263 43.8932 8.58108 43.5969H47.6999L57.8009 44.3447C58.7681 44.4163 59.6282 44.8776 60.2228 45.6437C60.8172 46.4095 61.0506 47.357 60.8798 48.3115L59.8468 54.101H56.0708C54.8161 52.3064 52.7359 51.1291 50.3848 51.1291C46.78 51.1291 43.8098 53.8931 43.4804 57.4125H40.0222C39.4505 57.4125 38.9871 57.8759 38.9871 58.4476C38.9871 59.0193 39.4505 59.4826 40.0222 59.4826H43.5953C44.254 62.6443 47.0679 65 50.3851 65C53.7016 65 56.5149 62.6443 57.1734 59.4826H60.1228C60.6243 59.4826 61.0536 59.1231 61.1417 58.6294L61.5803 56.1711H62.4884C63.0601 56.1711 63.5235 55.7077 63.5235 55.136C63.5232 54.5645 63.0597 54.101 62.4881 54.101ZM14.2606 53.1995C16.943 53.1995 19.1253 55.3818 19.1253 58.0642C19.1253 58.1694 19.1219 58.2761 19.1151 58.3809V58.3816C18.9518 60.9322 16.8194 62.93 14.2608 62.93C11.7013 62.93 9.56852 60.9321 9.405 58.3802C9.39827 58.2758 9.39485 58.1694 9.39485 58.0641C9.39446 55.3817 11.5774 53.1995 14.2606 53.1995ZM7.58932 56.1711C7.47544 56.5716 7.39597 56.9862 7.3561 57.4125H5.33171V56.1711H7.58932ZM33.2001 41.5268V40.4034C33.2001 39.8317 32.7367 39.3683 32.165 39.3683C31.5934 39.3683 31.13 39.8317 31.13 40.4034V41.5268H20.6091V31.6814H31.13V37.1602C31.13 37.7319 31.5934 38.1953 32.165 38.1953C32.7367 38.1953 33.2001 37.7319 33.2001 37.1602V31.6814H35.9575C40.1812 31.6814 43.9162 34.3735 45.2516 38.3807L46.3013 41.5268H33.2001ZM55.2393 58.3803L55.2392 58.3816C55.0758 60.9322 52.9435 62.93 50.3848 62.93C47.8253 62.93 45.6925 60.9321 45.529 58.3802C45.5223 58.2766 45.5189 58.1701 45.5189 58.0641C45.5189 55.3817 47.7017 53.1993 50.385 53.1993C53.0674 53.1993 55.2497 55.3817 55.2497 58.0641C55.2494 58.1702 55.246 58.2766 55.2393 58.3803ZM59.2558 57.4127H57.2882C57.2483 56.9864 57.1688 56.5716 57.055 56.1712H59.4774L59.2558 57.4127Z" fill="#5374CA"/>
</g>
<defs>
<clipPath id="clip0_102_199">
<rect width="65" height="65" fill="white"/>
</clipPath>
</defs>
</svg>
