<svg width="65" height="65" viewBox="0 0 65 65" fill="none" xmlns="http://www.w3.org/2000/svg">
<path d="M33.5485 38.7903V28.3064C33.5485 23.1043 29.3161 18.871 24.1131 18.871H22.6915C24.6844 17.2607 26.0024 14.8577 26.1785 12.1468C27.5037 11.2535 28.3069 9.77102 28.3069 8.13973V6.29048C28.3069 4.28697 26.8946 2.60758 25.0148 2.1944C24.611 0.92365 23.4188 0 22.0161 0H11.4799C8.04007 0 5.24203 2.79825 5.24203 6.23783C5.24203 7.90378 5.89095 9.47007 7.0694 10.6483L7.33893 10.9178V11.5321C7.33893 14.4948 8.71433 17.1399 10.8574 18.8708H9.43583C4.23237 18.871 0 23.1043 0 28.3064V38.7903C0 42.2593 2.82122 45.0805 6.29027 45.0805V65H27.258V45.0807C30.7272 45.0807 33.5485 42.2595 33.5485 38.7903ZM22.8319 22.534L20.9679 23.465V26.6647L17.8228 28.5519V28.4973L20.6462 20.9677H22.3097L22.8319 22.534ZM7.33872 6.23762C7.33872 3.9546 9.19642 2.09668 11.4799 2.09668H22.0161C22.5949 2.09668 23.0646 2.5675 23.0646 3.14513V4.19358H24.1131C25.2694 4.19358 26.2097 5.13392 26.2097 6.29027V8.13952C26.2097 8.62377 26.0849 9.08527 25.8585 9.48783C25.1498 7.4854 23.4284 5.92323 21.255 5.48817L19.5735 5.15277L18.3092 6.4181C17.7157 7.01155 16.9264 7.3385 16.0856 7.3385H13.4487C11.6109 7.3385 9.86527 7.93823 8.43635 9.04518C7.72763 8.27775 7.33872 7.28802 7.33872 6.23762ZM9.4354 11.5323V10.9462C10.5489 9.97338 11.9557 9.4354 13.4487 9.4354H16.0853C17.4861 9.4354 18.8028 8.89027 19.7925 7.90053L20.2642 7.42885L20.844 7.54412C22.7374 7.92372 24.1128 9.60115 24.1128 11.5321C24.1128 15.5788 20.8199 18.8708 16.7741 18.8708C12.7283 18.8708 9.4354 15.579 9.4354 11.5323ZM11.2387 20.9677H12.9014L15.7257 28.4973V28.5519L12.5805 26.6647V23.465L10.7176 22.534L11.2387 20.9677ZM6.29027 42.9838C3.97757 42.9838 2.09668 41.103 2.09668 38.7903H6.29027V42.9838ZM15.7259 62.9033H8.38717V60.8066H15.7259V62.9033ZM15.7259 58.7097H8.38717V26.2097H6.29048V36.6936H2.09668V28.3064C2.09668 24.3991 5.16858 21.2047 9.02243 20.9887L8.15338 23.595L10.4839 24.7609V27.8516L15.7259 30.9968V58.7097ZM15.1418 20.9677H18.4065L16.7741 25.3205L15.1418 20.9677ZM25.1613 62.9033H17.8226V60.8066H25.1613V62.9033ZM27.258 42.9838V38.7903H31.4515C31.4515 41.103 29.5709 42.9838 27.258 42.9838ZM31.4515 36.6936H27.258V26.2097H25.1613V58.7097H17.8226V30.9966L23.0646 27.8514V24.7607L25.3951 23.5948L24.526 20.9885C28.3799 21.2047 31.4515 24.3991 31.4515 28.3064V36.6936Z" fill="#5374CA"/>
<path d="M59.7582 4.19358H59.5654C59.1314 2.97635 57.9781 2.0969 56.6131 2.0969H53.4679V8.38716H56.6131C57.9781 8.38716 59.1314 7.5075 59.5654 6.29048H59.7582C61.4922 6.29048 62.9033 7.70163 62.9033 9.43561V11.5323C62.9033 17.8908 57.7295 23.0646 51.371 23.0646C45.0125 23.0646 39.8387 17.8908 39.8387 11.5323V9.43561C39.8387 7.70163 41.2499 6.29048 42.9839 6.29048H43.1767C43.6107 7.50771 44.764 8.38716 46.129 8.38716H49.2741V2.09668H46.129C44.764 2.09668 43.6107 2.97635 43.1767 4.19336H42.9839C40.0935 4.19336 37.7418 6.54485 37.7418 9.4354V11.5321C37.7418 18.6936 43.2972 24.5687 50.3226 25.1075V60.8062C50.3226 61.9626 49.3822 62.9029 48.2259 62.9029C47.0695 62.9029 46.1292 61.9626 46.1292 60.8062V57.6611C46.1292 55.3484 44.2483 53.4675 41.9356 53.4675H40.7814C40.2939 51.0783 38.1773 49.2739 35.6454 49.2739C32.755 49.2739 30.4033 51.6254 30.4033 54.5159C30.4033 57.4065 32.7548 59.758 35.6454 59.758C38.1762 59.758 40.2939 57.9538 40.7814 55.5644H41.9356C43.092 55.5644 44.0323 56.5047 44.0323 57.6611V60.8062C44.0323 63.1189 45.9132 64.9998 48.2259 64.9998C50.5386 64.9998 52.4195 63.1189 52.4195 60.8062V25.1078C59.4449 24.5689 65.0002 18.6938 65.0002 11.5323V9.43561C65.0002 6.54506 62.6487 4.19358 59.7582 4.19358ZM56.6131 6.29026H55.5646V4.19358H56.6131C57.1918 4.19358 57.6615 4.6644 57.6615 5.24203C57.6615 5.81966 57.1918 6.29026 56.6131 6.29026ZM46.1292 4.19358H47.1777V6.29026H46.1292C45.5505 6.29026 45.0808 5.81945 45.0808 5.24181C45.0808 4.66418 45.5505 4.19358 46.1292 4.19358ZM35.6454 57.6613C33.9114 57.6613 32.5002 56.2501 32.5002 54.5162C32.5002 52.7822 33.9114 51.371 35.6454 51.371C37.3793 51.371 38.7905 52.7822 38.7905 54.5162C38.7905 56.2501 37.3793 57.6613 35.6454 57.6613Z" fill="#5374CA"/>
</svg>
