<svg width="65" height="65" viewBox="0 0 65 65" fill="none" xmlns="http://www.w3.org/2000/svg">
<path d="M57.0403 13.2649H45.1016V1.32617L57.0403 13.2649Z" fill="#AFB6BB"/>
<path d="M57.0406 13.2649V63.6731H7.95898V1.32617H45.1018V13.2649H57.0406Z" fill="white"/>
<path d="M58.3643 13.2653C58.3642 12.9201 58.2326 12.5809 57.979 12.3273L46.0402 0.388541C45.7864 0.134908 45.4472 0.00331633 45.1022 0.00318367V0H7.95934C7.2267 0 6.63281 0.593888 6.63281 1.32653V63.6735C6.63281 64.4061 7.2267 65 7.95934 65H57.041C57.7736 65 58.3675 64.4061 58.3675 63.6735V13.2653H58.3643ZM46.4287 4.52904L53.8385 11.9388H46.4287V4.52904ZM9.28587 62.3469V2.65306H43.7757V13.2653C43.7757 13.9979 44.3696 14.5918 45.1022 14.5918H55.7145V62.3469H9.28587Z" fill="#5374CA"/>
<path d="M51.7349 21.2246H17.2451V23.8777H51.7349V21.2246Z" fill="#5374CA"/>
<path d="M51.735 29.1836H13.2656V31.8367H51.735V29.1836Z" fill="#5374CA"/>
<path d="M51.735 37.1426H13.2656V39.7956H51.735V37.1426Z" fill="#5374CA"/>
<path d="M51.735 45.1016H13.2656V47.7546H51.735V45.1016Z" fill="#5374CA"/>
<path d="M43.7758 53.0615H13.2656V55.7146H43.7758V53.0615Z" fill="#5374CA"/>
<path d="M51.7346 53.0615H47.0918V55.7146H51.7346V53.0615Z" fill="#5374CA"/>
<path d="M21.2248 5.96973H13.2656V8.62279H21.2248V5.96973Z" fill="#5374CA"/>
<path d="M29.184 10.6123H13.2656V13.2654H29.184V10.6123Z" fill="#5374CA"/>
</svg>
