<svg width="65" height="65" viewBox="0 0 65 65" fill="none" xmlns="http://www.w3.org/2000/svg">
<path d="M11.1526 35.5596C11.1526 39.0926 12.4395 42.6704 14.6833 45.3758C17.0429 48.2207 20.1231 49.7875 23.3565 49.7875C26.5895 49.7875 29.6659 48.2216 32.0194 45.3782C34.2558 42.6761 35.5384 39.0997 35.5384 35.5659V35.5477C35.5384 34.9868 35.0837 34.5321 34.5228 34.5321C33.9619 34.5321 33.5072 34.9868 33.5072 35.5477V35.5659C33.5072 38.6348 32.3945 41.7391 30.4546 44.083C28.4942 46.4517 25.9733 47.7563 23.3565 47.7563C20.7383 47.7563 18.2134 46.4503 16.2467 44.0791C14.3002 41.7321 13.1839 38.6268 13.1839 35.5596V34.3415C13.1839 31.829 14.8715 28.4133 15.5113 27.2084C19.5881 26.7408 23.5195 26.9138 27.2036 27.7269C27.2773 27.7431 27.3509 27.7509 27.4234 27.7509C27.8895 27.7509 28.3096 27.4279 28.4142 26.954C28.535 26.4063 28.1891 25.8642 27.6413 25.7434C23.6 24.8514 19.2889 24.6838 14.8265 25.2437C14.4929 25.2596 14.174 25.4387 13.9946 25.7493C13.9296 25.8618 13.0457 27.4051 12.2807 29.3788C11.9335 27.4979 11.6152 25.3826 11.6152 23.9477C11.6152 20.3946 13.8647 18.8041 16.0941 18.8041C16.1678 18.8041 16.2394 18.7959 16.3084 18.781C16.3784 18.796 16.4497 18.8042 16.5213 18.8042C16.7354 18.8042 16.9513 18.7368 17.1349 18.5973C19.362 16.9057 22.3374 17.1261 25.2211 17.6162C25.7741 17.7103 26.2986 17.3382 26.3926 16.7852C26.4867 16.2322 26.1146 15.7077 25.5615 15.6137C22.4895 15.0915 18.9916 14.8315 16.1853 16.7774C16.1552 16.7748 16.125 16.7729 16.0941 16.7729C14.1664 16.7729 12.4548 17.5432 11.2746 18.942C10.1845 20.2341 9.58398 22.0118 9.58398 23.9477C9.58398 27.1184 10.9327 32.9779 11.1524 33.9112V35.5596H11.1526Z" fill="#5374CA"/>
<path d="M40.8475 52.0361C40.8257 52.03 40.8036 52.0247 40.7814 52.02L34.7388 50.756L33.1414 48.3336C33.1301 48.3165 33.1183 48.2997 33.1059 48.2833C32.8155 47.896 32.3733 47.6406 31.8927 47.5822C31.4125 47.524 30.9216 47.6662 30.5468 47.9728C30.5404 47.9782 30.5338 47.9836 30.5274 47.9892L23.3426 54.1738L16.158 47.9892C16.1515 47.9837 16.145 47.9783 16.1385 47.9728C15.7638 47.6662 15.2735 47.5238 14.7927 47.5822C14.3121 47.6406 13.8699 47.8961 13.5794 48.2833C13.5671 48.2997 13.5553 48.3165 13.544 48.3336L11.9465 50.756L5.90395 52.02C5.88174 52.0247 5.85965 52.03 5.83781 52.0361C4.08078 52.5283 2.58604 53.6177 1.51493 55.1864C0.538027 56.6176 0 58.3451 0 60.051V61.9605C0 63.6357 1.4917 64.9986 3.32528 64.9986H21.0302C21.0314 64.9986 21.0327 64.9988 21.034 64.9988C21.0354 64.9988 21.0368 64.9986 21.0382 64.9986H25.6469C25.6483 64.9986 25.6497 64.9988 25.6511 64.9988C25.6524 64.9988 25.6537 64.9986 25.6549 64.9986H43.36C45.1935 64.9986 46.6852 63.6358 46.6852 61.9605V60.051C46.6852 58.3451 46.1472 56.6176 45.1702 55.1866C44.0993 53.6178 42.6046 52.5284 40.8475 52.0361ZM31.6253 49.7244L32.8861 51.6363L27.8398 58.5748L24.8347 55.5698L31.6253 49.7244ZM22.6765 60.9444H24.009L24.4136 62.9674H22.2719L22.6765 60.9444ZM24.3584 58.3567C24.3584 58.6911 24.1546 58.913 24.0198 58.913H22.6656C22.5308 58.913 22.327 58.6911 22.327 58.3567V57.9658L23.3426 56.9502L24.3582 57.9658V58.3567H24.3584ZM15.0602 49.7244L21.8507 55.5697L18.8457 58.5747L13.7994 51.6362L15.0602 49.7244ZM2.03125 61.9605V60.051C2.03125 57.6552 3.51609 54.8139 6.35464 54.0009L12.1292 52.7931L17.902 60.7307C18.0767 60.971 18.3478 61.1226 18.644 61.146C18.6705 61.1481 18.697 61.149 18.7234 61.149C18.9917 61.149 19.2503 61.0428 19.4415 60.8516L20.6257 59.6672C20.6794 59.7665 20.7384 59.8616 20.8034 59.9519L20.2004 62.9673H3.32528C2.62387 62.9673 2.03125 62.5062 2.03125 61.9605ZM44.6542 61.9605C44.6542 62.5063 44.0616 62.9674 43.3602 62.9674H26.485L25.8819 59.952C25.9469 59.8619 26.006 59.7666 26.0597 59.6674L27.244 60.8517C27.4352 61.0429 27.6938 61.1492 27.9621 61.1492C27.9885 61.1492 28.015 61.1481 28.0415 61.1461C28.3377 61.1229 28.6088 60.9712 28.7834 60.7309L34.5563 52.7932L40.3309 54.0011C43.1693 54.8141 44.6542 57.6553 44.6542 60.0511V61.9605Z" fill="#5374CA"/>
<path d="M46.7188 0.000976562C36.6384 0.000976562 28.4375 8.20189 28.4375 18.2822C28.4375 28.3626 36.6384 36.5635 46.7188 36.5635C56.7991 36.5635 65 28.3626 65 18.2822C65 8.20189 56.7991 0.000976562 46.7188 0.000976562ZM46.7188 34.5322C37.7584 34.5322 30.4688 27.2424 30.4688 18.2822C30.4688 9.322 37.7584 2.03223 46.7188 2.03223C55.6791 2.03223 62.9688 9.322 62.9688 18.2822C62.9688 27.2424 55.6791 34.5322 46.7188 34.5322Z" fill="#5374CA"/>
<path d="M57.8855 10.0569C57.8841 10.0425 57.8813 10.0284 57.8793 10.0141C57.8766 9.99561 57.8745 9.97708 57.8708 9.95867C57.8675 9.94191 57.8629 9.92566 57.8587 9.90929C57.8548 9.89354 57.8514 9.8778 57.8467 9.86231C57.8417 9.84619 57.8356 9.83058 57.83 9.81471C57.8246 9.79935 57.8195 9.78373 57.8132 9.76862C57.8069 9.75364 57.7997 9.73942 57.7928 9.72482C57.7856 9.70934 57.7787 9.69372 57.7706 9.67861C57.763 9.66439 57.7544 9.65094 57.7461 9.6371C57.7374 9.6225 57.7291 9.60777 57.7196 9.59355C57.7092 9.57807 57.6976 9.56347 57.6865 9.54849C57.6777 9.53693 57.6697 9.525 57.6604 9.5137C57.6179 9.4619 57.5704 9.4143 57.5185 9.37177C57.5072 9.3625 57.4953 9.3545 57.4837 9.34574C57.4689 9.33457 57.4541 9.32302 57.4386 9.31261C57.4244 9.30309 57.4097 9.29483 57.3952 9.2862C57.3814 9.27795 57.3678 9.26919 57.3536 9.26157C57.3385 9.25357 57.3229 9.24659 57.3075 9.23936C57.2929 9.2325 57.2786 9.22514 57.2636 9.21892C57.2483 9.21269 57.2328 9.20762 57.2175 9.20203C57.2016 9.19632 57.186 9.19022 57.1699 9.1854C57.1544 9.1807 57.1385 9.17728 57.1228 9.17334C57.1064 9.16928 57.0902 9.16458 57.0734 9.16128C57.0551 9.1576 57.0366 9.15544 57.0182 9.1529C57.0038 9.15087 56.9897 9.14808 56.9753 9.14668C56.9417 9.14338 56.9082 9.1416 56.8746 9.1416H50.7812C50.2203 9.1416 49.7656 9.59635 49.7656 10.1572C49.7656 10.7181 50.2203 11.1729 50.7812 11.1729H54.4231L46.7187 18.8773L44.39 16.5484C43.9934 16.1518 43.3504 16.1518 42.9538 16.5484L34.8288 24.6734C34.4321 25.0702 34.4321 25.7132 34.8288 26.1098C35.0271 26.3081 35.287 26.4072 35.547 26.4072C35.807 26.4072 36.0668 26.3081 36.2651 26.1098L43.6718 18.703L46.0005 21.0318C46.1493 21.1804 46.3327 21.2734 46.5247 21.3106C46.5887 21.323 46.6537 21.3291 46.7187 21.3291C46.7837 21.3291 46.8487 21.3229 46.9127 21.3106C47.1048 21.2734 47.2881 21.1804 47.4369 21.0318C47.437 21.0317 47.4371 21.0315 47.4371 21.0314L55.8593 12.6092V16.2511C55.8593 16.812 56.3141 17.2667 56.875 17.2667C57.4358 17.2667 57.8906 16.812 57.8906 16.2511V10.1576C57.8906 10.1241 57.8888 10.0904 57.8855 10.0569Z" fill="#5374CA"/>
</svg>
