<svg width="65" height="65" viewBox="0 0 65 65" fill="none" xmlns="http://www.w3.org/2000/svg">
<g clip-path="url(#clip0_102_174)">
<path d="M61.9833 14.9921H50.3052V10.8509C50.3052 7.50793 47.5853 4.78809 44.2424 4.78809H20.6921C17.349 4.78809 14.6292 7.50793 14.6292 10.8509V14.9921H3.01666C1.35332 14.9921 0 16.3454 0 18.0087V57.1955C0 58.859 1.35332 60.2122 3.01666 60.2122H61.9833C63.6468 60.2122 65 58.8588 65 57.1955V18.0087C65 16.3454 63.6467 14.9921 61.9833 14.9921ZM16.5547 10.8509C16.5547 8.56964 18.4107 6.71371 20.6921 6.71371H44.2423C46.5235 6.71371 48.3796 8.56964 48.3796 10.8509V14.9683H45.3695V10.8509C45.3695 10.2398 44.8533 9.72364 44.2423 9.72364H20.6921C20.0811 9.72364 19.5649 10.2398 19.5649 10.8509V14.9683H16.5547V10.8509ZM43.4441 11.6493V14.9921H21.4904V11.6493H43.4441ZM1.9255 18.0087C1.9255 17.4071 2.41503 16.9176 3.01666 16.9176H9.06407C8.62215 20.6406 5.6536 23.5982 1.9255 24.023V18.0087ZM3.01666 58.2865C2.41503 58.2865 1.9255 57.797 1.9255 57.1954V51.0463C5.68242 51.4922 8.66176 54.5106 9.04376 58.2865H3.01666ZM63.0745 57.1954C63.0745 57.797 62.5848 58.2865 61.9833 58.2865H55.4737C55.8718 54.3501 59.0924 51.2361 63.0744 51.0026V57.1954H63.0745ZM63.0745 49.0739C58.0304 49.3125 53.9508 53.2876 53.5431 58.2864H10.9743C10.5798 53.4481 6.7454 49.5693 1.92563 49.1088V25.9585C6.71658 25.519 10.5443 21.7035 11.0016 16.9174H53.5161C53.9886 21.8632 58.0601 25.7731 63.0746 25.9914V49.0739H63.0745ZM63.0745 24.0649C59.1225 23.8516 55.9143 20.8001 55.4535 16.9177H61.9833C62.5848 16.9177 63.0745 17.4072 63.0745 18.0089V24.0649Z" fill="#5374CA"/>
<path d="M32.5004 22.9453C24.4188 22.9453 17.8438 29.5202 17.8438 37.6021C17.8438 45.6836 24.4187 52.2587 32.5004 52.2587C40.5821 52.2587 47.157 45.6838 47.157 37.6021C47.157 29.5203 40.5819 22.9453 32.5004 22.9453ZM32.5004 50.3332C25.4804 50.3332 19.7694 44.6222 19.7694 37.6022C19.7694 30.5822 25.4804 24.8711 32.5004 24.8711C39.5204 24.8711 45.2313 30.5822 45.2313 37.6022C45.2313 44.6222 39.5204 50.3332 32.5004 50.3332Z" fill="#5374CA"/>
<path d="M41.0558 34.3162H35.7854V29.0458C35.7854 28.514 35.3545 28.083 34.8226 28.083H30.1774C29.6456 28.083 29.2146 28.5139 29.2146 29.0458V34.3162H23.9443C23.4125 34.3162 22.9814 34.747 22.9814 35.279V39.9242C22.9814 40.456 23.4123 40.887 23.9443 40.887H29.2146V46.1573C29.2146 46.6891 29.6455 47.1201 30.1774 47.1201H34.8226C35.3544 47.1201 35.7854 46.6893 35.7854 46.1573V40.887H41.0558C41.5876 40.887 42.0186 40.4561 42.0186 39.9242V35.279C42.0186 34.7472 41.5877 34.3162 41.0558 34.3162ZM40.0931 38.9615H34.8227C34.2909 38.9615 33.8599 39.3924 33.8599 39.9243V45.1946H31.1403V39.9243C31.1403 39.3925 30.7095 38.9615 30.1775 38.9615H24.9072V36.2419H30.1775C30.7093 36.2419 31.1403 35.811 31.1403 35.2791V30.0088H33.8599V35.2791C33.8599 35.8109 34.2908 36.2419 34.8227 36.2419H40.0931V38.9615Z" fill="#5374CA"/>
</g>
<defs>
<clipPath id="clip0_102_174">
<rect width="65" height="65" fill="white"/>
</clipPath>
</defs>
</svg>
