<svg width="65" height="65" viewBox="0 0 65 65" fill="none" xmlns="http://www.w3.org/2000/svg">
<path d="M48.7496 60.667C49.0269 60.667 49.3042 60.5609 49.5155 60.3496L56.0155 53.8496C56.2191 53.647 56.3328 53.3707 56.3328 53.0837V9.75028C56.3328 9.15233 55.8486 8.66699 55.2495 8.66699H48.7496C48.1505 8.66699 47.6663 9.15233 47.6663 9.75028C47.6663 10.3482 48.1505 10.8336 48.7496 10.8336H54.1663V52.635L47.9837 58.8177C47.5601 59.2412 47.5601 59.926 47.9837 60.3495C48.1949 60.5607 48.4723 60.667 48.7496 60.667Z" fill="#5374CA"/>
<path d="M16.2493 10.8336C16.8484 10.8336 17.3326 10.3482 17.3326 9.75028C17.3326 9.15233 16.8484 8.66699 16.2493 8.66699H9.74931C9.15022 8.66699 8.66602 9.15233 8.66602 9.75028V56.3336C8.66602 58.7235 10.6095 60.6669 12.9993 60.6669H44.416C45.0151 60.6669 45.4993 60.1815 45.4993 59.5836V53.0836C45.4993 52.5928 45.9825 52.0003 46.5826 52.0003H50.9159C51.515 52.0003 51.9992 51.5149 51.9992 50.917C51.9992 50.319 51.515 49.8337 50.9159 49.8337H46.5826C44.8515 49.8337 43.3326 51.3526 43.3326 53.0837V58.5003H12.9993C11.8044 58.5003 10.8326 57.5286 10.8326 56.3336V10.8336H16.2493Z" fill="#5374CA"/>
<path d="M32.4997 4.33301C31.3048 4.33301 30.333 5.30471 30.333 6.49972C30.333 7.6946 31.3047 8.66643 32.4997 8.66643C33.6946 8.66643 34.6664 7.69473 34.6664 6.49972C34.6664 5.30483 33.6946 4.33301 32.4997 4.33301Z" fill="#5374CA"/>
<path d="M55.2497 4.33301H48.7497C48.1506 4.33301 47.6664 4.81835 47.6664 5.4163C47.6664 6.01425 48.1506 6.49959 48.7497 6.49959H55.2497C56.8293 6.49959 58.4997 8.17004 58.4997 9.74959V59.5829C58.4997 61.1624 56.8293 62.8329 55.2497 62.8329H9.74972C8.17017 62.8329 6.49972 61.1624 6.49972 59.5829V9.74972C6.49972 8.17017 8.17017 6.49972 9.74972 6.49972H16.2497C16.8488 6.49972 17.333 6.01438 17.333 5.41643C17.333 4.81848 16.8488 4.33313 16.2497 4.33313H9.74972C6.96551 4.33313 4.33301 6.96564 4.33301 9.74984V59.5831C4.33301 62.3672 6.96551 64.9997 9.74972 64.9997H55.2497C58.0339 64.9997 60.6664 62.3672 60.6664 59.583V9.74972C60.6664 6.96551 58.0339 4.33301 55.2497 4.33301Z" fill="#5374CA"/>
<path d="M13 35.7504C13 36.3484 13.4842 36.8337 14.0833 36.8337H18.4166C18.8835 36.8337 19.2974 36.5357 19.4436 36.0927L22.75 26.1759L30.3897 49.0927C30.5337 49.526 30.9335 49.8218 31.3907 49.8337H31.4167C31.8619 49.8337 32.2639 49.5608 32.4264 49.1426L39.1235 31.9209L41.2805 36.2347C41.4647 36.602 41.8394 36.8338 42.25 36.8338H45.7005C46.149 38.0926 47.3396 39.0004 48.75 39.0004C50.5418 39.0004 52 37.5422 52 35.7504C52 33.9586 50.5418 32.5004 48.75 32.5004C47.3396 32.5004 46.1489 33.4082 45.7005 34.6671H42.9196L39.9697 28.7662C39.778 28.3827 39.35 28.1595 38.9502 28.1683C38.5223 28.1888 38.1454 28.4586 37.9905 28.8584L31.4948 45.5601L23.7771 22.408C23.6308 21.965 23.2169 21.667 22.75 21.667C22.2831 21.667 21.8703 21.965 21.7229 22.408L17.6356 34.667H14.0833C13.4842 34.6671 13 35.1525 13 35.7504ZM48.75 34.6671C49.3479 34.6671 49.8333 35.1535 49.8333 35.7504C49.8333 36.3473 49.3479 36.8337 48.75 36.8337C48.1521 36.8337 47.6667 36.3473 47.6667 35.7504C47.6667 35.1535 48.1521 34.6671 48.75 34.6671Z" fill="#5374CA"/>
<path d="M20.5833 13H44.4166C45.0157 13 45.4999 12.5147 45.4999 11.9167V5.41671C45.4999 4.81876 45.0157 4.33342 44.4166 4.33342H38.6283C37.7239 1.77671 35.2744 0 32.5 0C29.7256 0 27.2761 1.77671 26.3716 4.33329H20.5833C19.9842 4.33329 19.5 4.81863 19.5 5.41658V11.9166C19.5 12.5147 19.9842 13 20.5833 13ZM21.6667 6.5H27.1929C27.7074 6.5 28.1516 6.13704 28.2534 5.63228C28.6618 3.62375 30.4472 2.16671 32.5001 2.16671C34.5531 2.16671 36.3384 3.62375 36.7468 5.63228C36.8487 6.13717 37.2929 6.5 37.8074 6.5H43.3335V10.8333H21.6667V6.5Z" fill="#5374CA"/>
</svg>
