<svg width="46" height="46" viewBox="0 0 46 46" fill="none" xmlns="http://www.w3.org/2000/svg">
<path d="M18.6335 7.93473L27.3654 9.18222V10.7571H28.7157V8.01107L17.2832 6.37793V10.7571H18.6335V7.93473Z" fill="#5374CA"/>
<path d="M38.7646 23.4234L28.7158 20.5523V17.4607H28.7007C29.6347 16.2251 30.1561 14.7042 30.1561 13.1398V12.4773L31.5965 11.0369V4.27593C31.5965 1.91823 29.6782 0 27.3205 0H18.6787C16.321 0 14.4027 1.91823 14.4027 4.27593V11.0369L15.843 12.4773V12.9178C15.843 14.6239 16.4089 16.204 17.3603 17.4607H17.2834V20.5523L7.23457 23.4234L5.71387 46H40.2853L38.7646 23.4234ZM38.841 44.6497H34.4771V29.9284L37.5715 25.8026L38.841 44.6497ZM18.6336 18.7655C19.7229 19.6336 21.0612 20.1863 22.5246 20.281C22.6859 20.2915 22.8461 20.2966 23.006 20.2966C24.6004 20.2965 26.1143 19.7797 27.3655 18.8115V20.6698L22.9996 23.1646L18.6336 20.6698V18.7655ZM24.1506 36.1591L21.9255 33.934L22.0019 31.8137L24.086 34.3715L24.1506 36.1591ZM21.7337 39.2525L24.357 41.8758L24.4203 43.6302L21.6749 40.8848L21.7337 39.2525ZM21.8002 37.4094L21.859 35.7771L24.2221 38.1402L24.2854 39.8947L21.8002 37.4094ZM22.0827 29.7751L22.0753 29.7811L22.1348 28.1311L23.9254 29.9218L24.0053 32.1346L22.0827 29.7751ZM23.7841 26.0036L23.8541 27.9407L22.2014 26.2881L22.2115 26.0083L22.9997 25.023L23.7841 26.0036ZM20.1879 44.6497H12.8724V28.7335L9.07403 24.3021L14.9237 22.6308L20.1422 28.5948L20.7965 27.777L20.1879 44.6497ZM21.6083 42.728L23.5302 44.6497H21.5391L21.6083 42.728ZM25.1991 27.7724L25.8571 28.5948L31.0756 22.6308L36.9943 24.3218L33.1268 29.4783V44.6497H25.8082L25.1991 27.7724ZM29.6401 22.2207L25.9034 26.4911L24.0199 24.1368L28.1287 21.7889L29.6401 22.2207ZM15.753 10.4777V4.27593C15.753 2.66278 17.0655 1.35029 18.6787 1.35029H27.3205C28.9337 1.35029 30.2462 2.66278 30.2462 4.27593V10.4777L28.8059 11.9181V13.1399C28.8059 14.7622 28.1537 16.267 26.9695 17.377C25.7862 18.4861 24.2388 19.0387 22.6118 18.9336C19.5734 18.7369 17.1933 16.0944 17.1933 12.9178V11.9181L15.753 10.4777ZM17.8705 21.7889L21.9793 24.1368L20.0957 26.4911L16.3591 22.2207L17.8705 21.7889ZM8.43894 25.636L11.5221 29.233V44.6497H7.15814L8.43894 25.636Z" fill="#5374CA"/>
</svg>
