<svg width="50" height="50" viewBox="0 0 50 50" fill="none" xmlns="http://www.w3.org/2000/svg">
<path d="M48.3871 20.9677V20.1613C48.3871 18.8274 47.3016 17.7419 45.9677 17.7419H43.8927L46.8863 9.51048L42.4637 4.35161C42.6419 3.95806 42.7419 3.53145 42.7419 3.0871C42.7419 1.38548 41.3565 0 39.6548 0C38.8306 0 38.0548 0.320968 37.4718 0.904032L35.4839 2.89194L34.4411 1.84919L33.3008 2.98952L39.7524 9.44113L40.8927 8.30081L39.85 7.25806L41.4556 5.65242L45.0484 9.84435L42.1774 17.7419H40.3226C38.9887 17.7419 37.9032 18.8274 37.9032 20.1613V20.9677H27.4194V16.129C27.4194 14.7952 26.3339 13.7097 25 13.7097H15.3226C13.9887 13.7097 12.9032 14.7952 12.9032 16.129V20.9677H0V25.8065H1.6129V50H6.45161V25.8065H14.3605L15.2718 28.2347C15.3056 28.325 15.3226 28.4202 15.3226 28.5177V33.871H12.0968V34.6774C12.0968 36.7895 13.7347 38.5081 15.8032 38.6766L12.0968 49.054V50H13.7097V49.3331L14.4476 47.2669L20.1613 43.7508L25.875 47.2669L26.6129 49.3331V50H28.2258V49.054L24.5194 38.6766C26.5879 38.5081 28.2258 36.7895 28.2258 34.6774V33.871H25V28.5177C25 28.4202 25.0169 28.325 25.0508 28.2347L25.9621 25.8065H34.6774V50H48.3871V25.8065H50V20.9677H48.3871ZM40.6976 4.12984L38.7097 6.11774L36.6242 4.03226L38.6121 2.04435C38.8863 1.77016 39.2661 1.6129 39.6548 1.6129C40.4677 1.6129 41.129 2.27419 41.129 3.0871C41.129 3.475 40.9718 3.85564 40.6976 4.12984ZM39.5161 20.1613C39.5161 19.7161 39.8774 19.3548 40.3226 19.3548H45.9677C46.4129 19.3548 46.7742 19.7161 46.7742 20.1613V20.9677H39.5161V20.1613ZM14.5161 16.129C14.5161 15.6839 14.8774 15.3226 15.3226 15.3226H25C25.4452 15.3226 25.8065 15.6839 25.8065 16.129V20.9677H14.5161V16.129ZM4.83871 48.3871H3.22581V25.8065H4.83871V48.3871ZM15.3145 44.8395L16.5065 41.5016L18.6226 42.804L15.3145 44.8395ZM17.0605 39.9492L17.5032 38.7097H22.8194L23.2621 39.9492L20.1613 41.8573L17.0605 39.9492ZM25.0081 44.8395L21.7 42.804L23.8161 41.5016L25.0081 44.8395ZM26.475 35.4839C26.1419 36.4226 25.2452 37.0968 24.1935 37.0968H16.129C15.0774 37.0968 14.1806 36.4226 13.8476 35.4839H26.475ZM16.7823 27.6677L16.0839 25.8065H24.2395L23.5403 27.6694C23.4387 27.9411 23.3871 28.2274 23.3871 28.5177V33.871H16.9355V28.5177C16.9355 28.2274 16.8839 27.9411 16.7823 27.6677ZM46.7742 39.5161H45.1613V41.129H46.7742V48.3871H36.2903V41.129H43.5484V39.5161H36.2903V25.8065H46.7742V39.5161ZM48.3871 24.1935H1.6129V22.5806H48.3871V24.1935Z" fill="#5374CA"/>
</svg>
