<svg width="50" height="50" viewBox="0 0 50 50" fill="none" xmlns="http://www.w3.org/2000/svg">
<g clip-path="url(#clip0_102_382)">
<path d="M16.7852 9.8791C16.7852 14.4086 20.4705 18.0937 25.0004 18.0937C29.5299 18.0937 33.2152 14.4087 33.2152 9.8791C33.2152 5.3482 29.5301 1.66211 25.0004 1.66211C20.4706 1.66211 16.7852 5.3482 16.7852 9.8791ZM31.4879 9.8791C31.4879 13.4563 28.5776 16.3664 25.0004 16.3664C21.4229 16.3664 18.5125 13.4563 18.5125 9.8791C18.5125 6.30067 21.4229 3.38941 25.0004 3.38941C28.5776 3.38941 31.4879 6.30083 31.4879 9.8791Z" fill="#5374CA"/>
<path d="M9.5157 9.5C5.7965 9.5 2.77051 12.5263 2.77051 16.2463C2.77051 19.9653 5.79634 22.991 9.5157 22.991C13.2341 22.991 16.2595 19.9653 16.2595 16.2463C16.2595 12.5263 13.2341 9.5 9.5157 9.5ZM9.5157 21.2639C6.74882 21.2639 4.49781 19.013 4.49781 16.2463C4.49781 13.4788 6.74882 11.2273 9.5157 11.2273C12.2818 11.2273 14.5322 13.4789 14.5322 16.2463C14.5322 19.013 12.2818 21.2639 9.5157 21.2639Z" fill="#5374CA"/>
<path d="M40.4843 22.991C44.2035 22.991 47.2293 19.9653 47.2293 16.2463C47.2293 12.5263 44.2036 9.5 40.4843 9.5C36.7651 9.5 33.7393 12.5263 33.7393 16.2463C33.7393 19.9653 36.7651 22.991 40.4843 22.991ZM40.4843 11.2271C43.251 11.2271 45.502 13.4788 45.502 16.2461C45.502 19.0129 43.251 21.2637 40.4843 21.2637C37.7174 21.2637 35.4664 19.0129 35.4664 16.2461C35.4664 13.4788 37.7174 11.2271 40.4843 11.2271Z" fill="#5374CA"/>
<path d="M43.4436 24.2059H37.4765C36.9307 24.2059 36.3935 24.2746 35.871 24.4074C34.55 21.8199 31.8582 20.0439 28.7594 20.0439H28.3793H21.6805H21.3003C18.1959 20.0439 15.5002 21.8262 14.1819 24.4214C13.6417 24.2793 13.0859 24.2062 12.5228 24.2059H6.55607C2.94093 24.2059 0 27.1471 0 30.762V47.4742C0 47.9511 0.386547 48.3378 0.863649 48.3378C1.34059 48.3378 1.7273 47.9511 1.7273 47.4742V30.762C1.7273 28.0994 3.89356 25.9332 6.55623 25.9332H12.5235C12.8763 25.9341 13.2261 25.9737 13.5684 26.0499C13.4072 26.6813 13.3212 27.3425 13.3212 28.0236V47.4742C13.3212 47.9511 13.7079 48.3378 14.1848 48.3378C14.6618 48.3378 15.0485 47.9511 15.0485 47.4742V28.0238C15.0485 27.2722 15.182 26.5512 15.4261 25.883C15.4375 25.8607 15.4485 25.8382 15.4581 25.8145C15.471 25.7833 15.4812 25.7516 15.4901 25.7197C16.3525 23.5522 18.3928 21.9783 20.8167 21.7918V24.9283C20.8167 25.4052 21.2034 25.7921 21.6804 25.7921H22.5333L20.2061 42.8611C20.1649 43.1624 20.2855 43.4631 20.5231 43.6527L24.4909 46.8205C24.6484 46.9464 24.8391 47.0092 25.0298 47.0092C25.2203 47.0092 25.411 46.9464 25.5686 46.8205L29.5367 43.6528C29.7745 43.4631 29.8947 43.1624 29.8537 42.8611L27.5261 25.7921H28.3793C28.8564 25.7921 29.2429 25.4052 29.2429 24.9283V21.7918C31.6546 21.9775 33.6864 23.5361 34.5563 25.6863C34.5653 25.7201 34.5755 25.7535 34.5886 25.7866C34.6014 25.8185 34.6161 25.8489 34.632 25.8784C34.8773 26.5478 35.0111 27.2703 35.0111 28.0236V47.4742C35.0111 47.9511 35.3978 48.3378 35.8748 48.3378C36.3519 48.3378 36.7384 47.9511 36.7384 47.4742V28.0238C36.7384 27.3381 36.6515 26.6724 36.4881 26.0369C36.8114 25.9688 37.1416 25.9333 37.4765 25.9333H43.4436C46.1064 25.9333 48.2728 28.0996 48.2728 30.7621V47.4743C48.2728 47.9513 48.6595 48.338 49.1365 48.338C49.6134 48.338 50.0001 47.9513 50.0001 47.4743V30.762C50 27.1471 47.0589 24.2059 43.4436 24.2059ZM27.5154 21.7714V24.0649H26.5366H23.5229H22.5442V21.7714H27.5154ZM28.0757 42.6088L25.0296 45.0405L21.9837 42.6088L24.2765 25.7922H25.7827L28.0757 42.6088Z" fill="#5374CA"/>
</g>
<defs>
<clipPath id="clip0_102_382">
<rect width="50" height="50" fill="white"/>
</clipPath>
</defs>
</svg>
