<svg width="80" height="80" viewBox="0 0 80 80" fill="none" xmlns="http://www.w3.org/2000/svg">
<circle cx="40" cy="40" r="40" fill="#5374CA"/>
<path d="M39 22C28.5238 22 20 30.5238 20 41C20 51.4762 28.5238 60 39 60C49.4762 60 58 51.4762 58 41C58 30.5238 49.4762 22 39 22ZM49.619 36L37.4762 48.0476C36.7619 48.7619 35.619 48.8095 34.8571 48.0952L28.4286 42.2381C27.6667 41.5238 27.619 40.3333 28.2857 39.5714C29 38.8095 30.1905 38.7619 30.9524 39.4762L36.0476 44.1429L46.9048 33.2857C47.6667 32.5238 48.8571 32.5238 49.619 33.2857C50.381 34.0476 50.381 35.2381 49.619 36Z" fill="white"/>
</svg>
