<svg width="80" height="80" viewBox="0 0 80 80" fill="none" xmlns="http://www.w3.org/2000/svg">
<circle cx="40" cy="40" r="40" fill="#5374CA"/>
<path d="M21 33.25V52.25C21 53.5616 22.0633 54.625 23.375 54.625H30.5V30.875H23.375C22.0633 30.875 21 31.9383 21 33.25Z" fill="white"/>
<path d="M54.6141 33.2498H47.5982C46.9847 33.2498 46.6774 32.8405 46.5742 32.6642C46.471 32.4891 46.2622 32.0217 46.5591 31.486L49.0327 27.0317C49.5754 26.0564 49.631 24.9095 49.1869 23.8855C48.7427 22.8604 47.866 22.117 46.7817 21.8468L45.0376 21.4108C44.6131 21.3041 44.1632 21.4398 43.8675 21.768L34.3976 32.2885C33.4154 33.382 32.875 34.7922 32.875 36.2603V48.6873C32.875 51.9611 35.5388 54.6248 38.8125 54.6248L50.626 54.6237C53.2933 54.6237 55.6486 52.8273 56.3525 50.2563L58.8875 38.6225C58.9617 38.299 59 37.9673 59 37.6357C59 35.2178 57.032 33.2498 54.6141 33.2498L54.6141 33.2498Z" fill="white"/>
</svg>
