<svg width="80" height="80" viewBox="0 0 80 80" fill="none" xmlns="http://www.w3.org/2000/svg">
<circle cx="40" cy="40" r="40" fill="#5374CA"/>
<path d="M40 22C29.523 22 21 30.523 21 41C21 51.477 29.523 60 40 60C50.477 60 59 51.477 59 41C59 30.523 50.477 22 40 22ZM49.0361 50.8276C48.7274 51.1364 48.3221 51.2918 47.9168 51.2918C47.5115 51.2918 47.1059 51.1364 46.7974 50.8276L38.8806 42.9111C38.5829 42.6151 38.4168 42.2127 38.4168 41.7918V31.5C38.4168 30.6245 39.1259 29.9168 40 29.9168C40.8741 29.9168 41.5832 30.6245 41.5832 31.5V41.1363L49.0361 48.5889C49.6551 49.2081 49.6551 50.2086 49.0361 50.8276Z" fill="white"/>
</svg>
