<svg width="80" height="80" viewBox="0 0 80 80" fill="none" xmlns="http://www.w3.org/2000/svg">
<circle cx="40" cy="40" r="40" fill="#5374CA"/>
<g clip-path="url(#clip0_405_4)">
<path d="M58.2571 33.5267L40.3704 27.2158C40.1308 27.1312 39.8693 27.1312 39.6297 27.2158L21.7429 33.5267C21.2982 33.6836 21.0006 34.1037 21 34.5753C20.9994 35.0468 21.2961 35.4676 21.7404 35.6255L39.6271 41.9844C39.7477 42.0273 39.8739 42.0487 40 42.0487C40.1262 42.0487 40.2523 42.0273 40.3729 41.9844L58.2596 35.6255C58.7039 35.4676 59.0005 35.0468 59 34.5753C58.9994 34.1037 58.7018 33.6836 58.2571 33.5267Z" fill="white"/>
<path d="M56.3257 48.3866V38.6758L54.0991 39.4673V48.3866C53.4285 48.7726 52.9766 49.4958 52.9766 50.3252C52.9766 51.1545 53.4285 51.8779 54.0991 52.2639V57.735C54.0991 58.3498 54.5976 58.8483 55.2124 58.8483C55.8272 58.8483 56.3257 58.3498 56.3257 57.735V52.264C56.9963 51.878 57.4482 51.1546 57.4482 50.3253C57.4482 49.4959 56.9964 48.7726 56.3257 48.3866Z" fill="white"/>
<path d="M40.0002 44.2746C39.6181 44.2746 39.2417 44.2096 38.8816 44.0816L28.8262 40.5068V45.4059C28.8262 46.6044 30.0765 47.618 32.5425 48.4184C34.692 49.1161 37.3405 49.5003 40.0002 49.5003C42.66 49.5003 45.3084 49.1161 47.458 48.4184C49.924 47.618 51.1743 46.6044 51.1743 45.4059V40.5068L41.119 44.0816C40.7588 44.2096 40.3824 44.2746 40.0002 44.2746Z" fill="white"/>
</g>
<defs>
<clipPath id="clip0_405_4">
<rect width="38" height="38" fill="white" transform="translate(21 24)"/>
</clipPath>
</defs>
</svg>
