<svg width="40" height="51" viewBox="0 0 40 51" fill="none" xmlns="http://www.w3.org/2000/svg">
<path d="M39.933 30.6554L39.939 30.6529L33.3717 12.6434L34.9644 11.6471L34.3684 10.1473L32.8158 11.1192L32.6058 10.5436C32.4523 10.123 32.0566 9.93835 31.7219 10.1312C31.5768 10.2149 31.4603 10.3612 31.3938 10.5436L31.2064 11.0581C30.0764 10.3985 28.8457 10.0562 27.5998 10.0551H21.9998V8.37936H23.3332V6.70359H22.1872L22.6665 4.29299C23.0345 2.44199 22.139 0.566485 20.6663 0.103867C19.1935 -0.358646 17.7013 0.766845 17.3332 2.61784C17.2239 3.1677 17.2239 3.74302 17.3332 4.29288L17.8125 6.70348H16.6665V8.37925H17.9999V10.055H12.4032C11.1561 10.0563 9.9241 10.3994 8.79327 11.0605L8.60594 10.546C8.45253 10.1254 8.05678 9.94076 7.72211 10.1336C7.57695 10.2173 7.46053 10.3636 7.39395 10.546L7.18395 11.1217L5.6313 10.1455L5.0353 11.647L6.62796 12.6474L0.060675 30.6529C0.0201754 30.7623 -0.000491136 30.8816 8.86039e-06 31.0023C0.0029255 34.24 2.09058 36.8638 4.66664 36.8675H11.3333C13.9093 36.8638 15.997 34.24 15.9999 31.0023C15.9982 30.882 15.9755 30.7635 15.9332 30.6554L9.34793 12.578C10.3052 12.0196 11.3479 11.7305 12.4032 11.7309H17.9999V42.3858L15.7239 45.2464H13.3332C11.4933 45.2491 10.0021 47.1232 9.99993 49.4358C9.99993 49.8985 10.2984 50.2737 10.6666 50.2737H29.3331C29.7013 50.2737 29.9998 49.8985 29.9998 49.4358C29.9976 47.1232 28.5065 45.2491 26.6665 45.2464H24.2758L21.9998 42.3858V11.7309H27.5998C28.6551 11.7305 29.6979 12.0196 30.6551 12.578L24.0605 30.6529C24.02 30.7623 23.9993 30.8816 23.9998 31.0023C24.0027 34.24 26.0904 36.8638 28.6665 36.8675H35.3331C37.9091 36.8638 39.9968 34.24 39.9997 31.0023C39.9981 30.882 39.9754 30.7635 39.933 30.6554ZM11.3333 35.1917H4.66664C3.08315 35.1895 1.71875 33.7896 1.4 31.8402H14.5999C14.2812 33.7896 12.9167 35.1895 11.3333 35.1917ZM14.2946 30.1644H1.70533L7.82928 13.3723C7.94111 13.41 8.05878 13.41 8.17061 13.3723L14.2946 30.1644ZM18.8845 2.35998C19.4037 1.58577 20.3239 1.48722 20.9399 2.13972C21.0032 2.20675 21.0618 2.28049 21.1152 2.35998C21.3848 2.79107 21.4801 3.35497 21.3732 3.88661L20.8125 6.70359H19.1872L18.6265 3.88661C18.5196 3.35497 18.6149 2.79107 18.8845 2.35998ZM19.3332 10.0551V8.37936H20.6665V10.0551H19.3332ZM20.6665 11.7309V41.8948H19.3332V11.7309H20.6665ZM26.6665 46.9221C27.5138 46.9234 28.2689 47.5943 28.5525 48.5979H11.4473C11.7308 47.5943 12.4859 46.9234 13.3332 46.9221H26.6665ZM22.3905 45.2464H17.6092L18.9425 43.5706H21.0572L22.3905 45.2464ZM31.8278 13.3748C31.9378 13.4235 32.0586 13.4173 32.1651 13.3572L38.2944 30.1644H25.7051L31.8278 13.3748ZM35.3331 35.1917H28.6665C27.083 35.1895 25.7186 33.7896 25.3998 31.8402H38.5997C38.281 33.7896 36.9165 35.1895 35.3331 35.1917Z" fill="#C4C9D5"/>
</svg>
